<svg width="66" height="66" viewBox="0 0 66 66" fill="none" xmlns="http://www.w3.org/2000/svg">
<path d="M25 41.76V41C25 36.5817 28.5817 33 33 33C37.4183 33 41 36.5817 41 41V41.76" stroke="#DD3538" stroke-width="5" stroke-linecap="round" stroke-linejoin="round"/>
<path d="M39.0027 15L33.0027 33" stroke="#DD3538" stroke-width="5" stroke-linecap="round" stroke-linejoin="round"/>
<path d="M14.0027 30.6666C13.2663 30.6666 12.6693 31.2636 12.6693 32C12.6693 32.7363 13.2663 33.3333 14.0027 33.3333C14.739 33.3333 15.336 32.7363 15.336 32C15.336 31.2636 14.739 30.6666 14.0027 30.6666" stroke="#DD3538" stroke-width="5" stroke-linecap="round" stroke-linejoin="round"/>
<path d="M18.0027 20.6666C17.2663 20.6666 16.6693 21.2636 16.6693 22C16.6693 22.7363 17.2663 23.3333 18.0027 23.3333C18.739 23.3333 19.336 22.7363 19.336 22C19.336 21.2636 18.739 20.6666 18.0027 20.6666" stroke="#DD3538" stroke-width="5" stroke-linecap="round" stroke-linejoin="round"/>
<path d="M52.0027 30.6666C51.2663 30.6666 50.6693 31.2636 50.6693 32C50.6693 32.7363 51.2663 33.3333 52.0027 33.3333C52.739 33.3333 53.336 32.7363 53.336 32C53.336 31.2636 52.739 30.6666 52.0027 30.6666" stroke="#DD3538" stroke-width="5" stroke-linecap="round" stroke-linejoin="round"/>
<path d="M48.0027 20.6666C47.2663 20.6666 46.6693 21.2636 46.6693 22C46.6693 22.7363 47.2663 23.3333 48.0027 23.3333C48.739 23.3333 49.336 22.7363 49.336 22C49.336 21.2636 48.739 20.6666 48.0027 20.6666" stroke="#DD3538" stroke-width="5" stroke-linecap="round" stroke-linejoin="round"/>
<path d="M26.0027 12.6666C25.2663 12.6666 24.6693 13.2636 24.6693 14C24.6693 14.7363 25.2663 15.3333 26.0027 15.3333C26.739 15.3333 27.336 14.7363 27.336 14C27.336 13.2636 26.739 12.6666 26.0027 12.6666" stroke="#DD3538" stroke-width="5" stroke-linecap="round" stroke-linejoin="round"/>
<path d="M58.1467 49.3599C43.2331 38.2132 22.7615 38.2132 7.84799 49.3599" stroke="#DD3538" stroke-width="5" stroke-linecap="round" stroke-linejoin="round"/>
<path fill-rule="evenodd" clip-rule="evenodd" d="M32.9973 63C49.5659 63 62.9973 49.5685 62.9973 33C62.9973 16.4315 49.5659 3 32.9973 3C16.4288 3 2.99733 16.4315 2.99733 33C2.99733 49.5685 16.4288 63 32.9973 63Z" stroke="#DD3538" stroke-width="5" stroke-linecap="round" stroke-linejoin="round"/>
</svg>
