<svg width="66" height="66" viewBox="0 0 66 66" fill="none" xmlns="http://www.w3.org/2000/svg">
<path fill-rule="evenodd" clip-rule="evenodd" d="M34.9973 3.00005C24.8355 2.98539 15.4658 8.48521 10.5248 17.3649C5.58375 26.2445 5.84941 37.1059 11.2186 45.7334L2.99731 63L20.264 54.7787C30.3607 61.0563 43.321 60.2731 52.5883 52.8253C61.8556 45.3776 65.4091 32.8894 61.451 21.6784C57.4929 10.4674 46.8865 2.97844 34.9973 3.00005V3.00005Z" stroke="#DD3538" stroke-width="5" stroke-linecap="round" stroke-linejoin="round"/>
<path fill-rule="evenodd" clip-rule="evenodd" d="M42.9973 37C42.9973 41.4183 39.4156 45 34.9973 45C30.579 45 26.9973 41.4183 26.9973 37H42.9973Z" stroke="#DD3538" stroke-width="5" stroke-linecap="round" stroke-linejoin="round"/>
<path d="M22.664 26C21.9276 26 21.3307 26.597 21.3307 27.3333C21.3307 28.0697 21.9276 28.6667 22.664 28.6667C23.4004 28.6667 23.9974 28.0697 23.9974 27.3333C23.9974 26.597 23.4004 26 22.664 26" stroke="#DD3538" stroke-width="5" stroke-linecap="round" stroke-linejoin="round"/>
<path d="M46.664 26C45.9276 26 45.3307 26.597 45.3307 27.3333C45.3307 28.0697 45.9276 28.6667 46.664 28.6667C47.4004 28.6667 47.9974 28.0697 47.9974 27.3333C47.9974 26.597 47.4004 26 46.664 26" stroke="#DD3538" stroke-width="5" stroke-linecap="round" stroke-linejoin="round"/>
</svg>
